<svg width="56" height="56" viewBox="0 0 56 56" fill="none" xmlns="http://www.w3.org/2000/svg">
<g clip-path="url(#clip0_5039_10759)">
<path d="M56 28C56 43.464 43.464 56 28 56C12.536 56 0 43.464 0 28C0 12.536 12.536 0 28 0C43.464 0 56 12.536 56 28Z" fill="url(#paint0_linear_5039_10759)"/>
<path d="M56 28C56 43.464 43.464 56 28 56C12.536 56 0 43.464 0 28C0 12.536 12.536 0 28 0C43.464 0 56 12.536 56 28Z" fill="url(#paint1_linear_5039_10759)"/>
<path d="M56 28C56 43.464 43.464 56 28 56C12.536 56 0 43.464 0 28C0 12.536 12.536 0 28 0C43.464 0 56 12.536 56 28Z" fill="url(#paint2_linear_5039_10759)"/>
<path opacity="0.2" fill-rule="evenodd" clip-rule="evenodd" d="M3.1143 28.3889C3.32212 14.8225 14.3843 3.88892 28.0002 3.88892C41.6161 3.88892 52.6783 14.8225 52.8861 28.3889C52.8881 28.2595 52.8891 28.1299 52.8891 28C52.8891 14.2542 41.746 3.11111 28.0002 3.11111C14.2545 3.11111 3.11133 14.2542 3.11133 28C3.11133 28.1299 3.11232 28.2595 3.1143 28.3889Z" fill="#091F2C"/>
<path opacity="0.2" fill-rule="evenodd" clip-rule="evenodd" d="M52.8861 27.6111C52.6783 41.1775 41.6161 52.1111 28.0002 52.1111C14.3843 52.1111 3.32211 41.1775 3.1143 27.6111C3.11232 27.7405 3.11133 27.8701 3.11133 28C3.11133 41.7458 14.2545 52.8889 28.0002 52.8889C41.746 52.8889 52.8891 41.7458 52.8891 28C52.8891 27.8701 52.8881 27.7405 52.8861 27.6111Z" fill="white"/>
<path fill-rule="evenodd" clip-rule="evenodd" d="M28 52.8889C41.7458 52.8889 52.8889 41.7458 52.8889 28C52.8889 14.2542 41.7458 3.11111 28 3.11111C14.2542 3.11111 3.11111 14.2542 3.11111 28C3.11111 41.7458 14.2542 52.8889 28 52.8889ZM28 56C43.464 56 56 43.464 56 28C56 12.536 43.464 0 28 0C12.536 0 0 12.536 0 28C0 43.464 12.536 56 28 56Z" fill="#F4F3F5"/>
<path opacity="0.05" fill-rule="evenodd" clip-rule="evenodd" d="M55.9974 27.6111C55.7893 42.8958 43.3341 55.2222 28 55.2222C12.6659 55.2222 0.210716 42.8958 0.00264552 27.6111C0.000883735 27.7405 0 27.8702 0 28C0 43.464 12.536 56 28 56C43.464 56 56 43.464 56 28C56 27.8702 55.9991 27.7405 55.9974 27.6111Z" fill="black"/>
<path opacity="0.5" fill-rule="evenodd" clip-rule="evenodd" d="M0.00264552 28.3889C0.210716 13.1042 12.6659 0.777778 28 0.777778C43.3341 0.777778 55.7893 13.1042 55.9974 28.3889C55.9991 28.2595 56 28.1298 56 28C56 12.536 43.464 0 28 0C12.536 0 0 12.536 0 28C0 28.1298 0.000883734 28.2595 0.00264552 28.3889Z" fill="white"/>
<path d="M18.5 16C16.0147 16 14 18.0147 14 20.5V35.5C14 37.9853 16.0147 40 18.5 40H37.5C39.9853 40 42 37.9853 42 35.5V20.5C42 18.0147 39.9853 16 37.5 16H18.5ZM24 24.0012C24 23.2463 24.8045 22.7636 25.4706 23.1189L32.9675 27.1176C33.6734 27.4941 33.6734 28.5058 32.9675 28.8822L25.4706 32.8809C24.8045 33.2362 24 32.7535 24 31.9986V24.0012Z" fill="#F4F3F5"/>
<path d="M37.5 15C40.5376 15 43 17.4624 43 20.5V35.5C43 38.5376 40.5376 41 37.5 41H18.5C15.4624 41 13 38.5376 13 35.5V20.5C13 17.4624 15.4624 15 18.5 15H37.5ZM25 31.999L32.4971 28L25 24.001V31.999Z" stroke="black" stroke-opacity="0.2" stroke-width="2"/>
</g>
<defs>
<linearGradient id="paint0_linear_5039_10759" x1="59.8025" y1="9.92542e-07" x2="14.5988" y2="60.7013" gradientUnits="userSpaceOnUse">
<stop offset="0.0773235" stop-color="#49C5B1"/>
<stop offset="0.682091" stop-color="#0078D4"/>
</linearGradient>
<linearGradient id="paint1_linear_5039_10759" x1="-3.80247" y1="62.8205" x2="45.8315" y2="11.5614" gradientUnits="userSpaceOnUse">
<stop offset="0.0001" stop-color="#C03BC4"/>
<stop offset="1" stop-color="#C03BC4" stop-opacity="0"/>
</linearGradient>
<linearGradient id="paint2_linear_5039_10759" x1="2.625" y1="70.2187" x2="6.62095" y2="13.6049" gradientUnits="userSpaceOnUse">
<stop offset="0.0001" stop-color="#FFB900"/>
<stop offset="0.602266" stop-color="#FFB900" stop-opacity="0"/>
</linearGradient>
<clipPath id="clip0_5039_10759">
<rect width="56" height="56" fill="white"/>
</clipPath>
</defs>
</svg>
